<svg width="16" height="16" viewBox="0 0 16 16" fill="none" xmlns="http://www.w3.org/2000/svg">
<g id="Group">
<g id="Group_2">
<g id="Group_3">
<path id="Vector" fill-rule="evenodd" clip-rule="evenodd" d="M11.3486 10.447L15.9998 15.0981L15.0947 16.0032L10.4436 11.3521C9.34027 12.2549 7.92998 12.7966 6.39316 12.7966C2.85854 12.7966 -0.00683594 9.9312 -0.00683594 6.39658C-0.00683594 2.86196 2.85854 -0.00341797 6.39316 -0.00341797C9.92779 -0.00341797 12.7932 2.86196 12.7932 6.39658C12.7932 7.93339 12.2515 9.34369 11.3486 10.447ZM6.39316 11.5166C9.22086 11.5166 11.5132 9.22428 11.5132 6.39658C11.5132 3.56888 9.22086 1.27658 6.39316 1.27658C3.56547 1.27658 1.27316 3.56888 1.27316 6.39658C1.27316 9.22428 3.56547 11.5166 6.39316 11.5166Z" fill="#EEEEEE"/>
</g>
</g>
</g>
</svg>
